<svg xmlns="http://www.w3.org/2000/svg" version="1.1" xmlns:xlink="http://www.w3.org/1999/xlink" xmlns:svgjs="http://svgjs.com/svgjs" width="1440" height="560" preserveAspectRatio="none" viewBox="0 0 1440 560"><g mask="url(&quot;#SvgjsMask1001&quot;)" fill="none"><rect width="1440" height="560" x="0" y="0" fill="rgba(0, 0, 0, 1)"></rect><path d="M1195.66 130.87a19.77 19.77 0 1 0 37.98 11z" stroke="#037b0b"></path><path d="M1403.5 605.33a55.66 55.66 0 1 0 17.41-109.95z" fill="#e73635"></path><path d="M172.87 462.64a49 49 0 1 0-9.73-97.51z" stroke="#d3b714"></path><path d="M1248.02 378.52a23.13 23.13 0 1 0-20.65 41.39z" fill="#037b0b"></path><path d="M346.48 54.88L357.29 54.88L357.29 92.99L346.48 92.99z" fill="#e73635"></path><path d="M865.44 160.18L873.11 160.18L873.11 196.64L865.44 196.64z" fill="#037b0b"></path><path d="M97.53 104.31L131.91 104.31L131.91 138.69L97.53 138.69z" stroke="#d3b714"></path><path d="M242.11 95.21 a10.09 10.09 0 1 0 20.18 0 a10.09 10.09 0 1 0 -20.18 0z" fill="#e73635"></path><path d="M297.48 240.98L327.62 240.98L327.62 271.12L297.48 271.12z" fill="#d3b714"></path><path d="M689.18 308.15a1.83 1.83 0 1 0-0.73-3.59z" stroke="#037b0b"></path><path d="M1431.69 85.58L1462.75 85.58L1462.75 136.66L1431.69 136.66z" fill="#d3b714"></path><path d="M664.18 337.42 a50.08 50.08 0 1 0 100.16 0 a50.08 50.08 0 1 0 -100.16 0z" fill="#d3b714"></path><path d="M918.8 370.34L935.9 370.34L935.9 387.44L918.8 387.44z" fill="#037b0b"></path><path d="M478.23 77.97L521.28 77.97L521.28 132.31L478.23 132.31z" stroke="#e73635"></path><path d="M837.41 267.51a39.94 39.94 0 1 0 74.56-28.64z" fill="#e73635"></path><path d="M955.72 18a19.72 19.72 0 1 0 18.31 34.93z" stroke="#037b0b"></path><path d="M1102.95 337.09a10.9 10.9 0 1 0 13.14-17.4z" fill="#d3b714"></path><path d="M436.03 377.23 a7.48 7.48 0 1 0 14.96 0 a7.48 7.48 0 1 0 -14.96 0z" stroke="#d3b714"></path><path d="M1019.1 199.82L1043.71 199.82L1043.71 245.69L1019.1 245.69z" fill="#e73635"></path><path d="M473.91 19.99L482.07 19.99L482.07 28.15L473.91 28.15z" fill="#037b0b"></path><path d="M205.5 539.39a1.7 1.7 0 1 0-2.7 2.07z" stroke="#e73635"></path><path d="M112.15 266.11 a18.92 18.92 0 1 0 37.84 0 a18.92 18.92 0 1 0 -37.84 0z" fill="#037b0b"></path><path d="M109.82 373.44 a18.67 18.67 0 1 0 37.34 0 a18.67 18.67 0 1 0 -37.34 0z" stroke="#d3b714"></path><path d="M858.02 254.01L884.75 254.01L884.75 280.74L858.02 280.74z" fill="#037b0b"></path><path d="M885.98 111.74 a53.62 53.62 0 1 0 107.24 0 a53.62 53.62 0 1 0 -107.24 0z" stroke="#d3b714"></path><path d="M149.08 528.27L185.69 528.27L185.69 564.88L149.08 564.88z" fill="#d3b714"></path><path d="M1013.69 423.56a5.46 5.46 0 1 0 10.44-3.2z" stroke="#037b0b"></path><path d="M373.09 289.79 a41.79 41.79 0 1 0 83.58 0 a41.79 41.79 0 1 0 -83.58 0z" stroke="#d3b714"></path><path d="M391.55 59.71L396.64 59.71L396.64 79.22L391.55 79.22z" stroke="#037b0b"></path><path d="M550.93 500.32a24.47 24.47 0 1 0-0.53 48.94z" stroke="#037b0b"></path><path d="M299.99 291.55 a45.11 45.11 0 1 0 90.22 0 a45.11 45.11 0 1 0 -90.22 0z" stroke="#037b0b"></path><path d="M905.46 457.75L924.8 457.75L924.8 488.99L905.46 488.99z" stroke="#037b0b"></path><path d="M1335.1 234.59 a37.48 37.48 0 1 0 74.96 0 a37.48 37.48 0 1 0 -74.96 0z" stroke="#e73635"></path></g><defs><mask id="SvgjsMask1001"><rect width="1440" height="560" fill="#ffffff"></rect></mask></defs></svg>