<svg id="visual" viewBox="0 0 960 540" width="960" height="540" xmlns="http://www.w3.org/2000/svg" xmlns:xlink="http://www.w3.org/1999/xlink" version="1.1"><rect x="0" y="0" width="960" height="540" fill="#000000"></rect><path d="M0 366L32 368.5C64 371 128 376 192 362.5C256 349 320 317 384 314C448 311 512 337 576 335.2C640 333.3 704 303.7 768 296C832 288.3 896 302.7 928 309.8L960 317L960 541L928 541C896 541 832 541 768 541C704 541 640 541 576 541C512 541 448 541 384 541C320 541 256 541 192 541C128 541 64 541 32 541L0 541Z" fill="#888277"></path><path d="M0 330L32 345.5C64 361 128 392 192 399.5C256 407 320 391 384 377.7C448 364.3 512 353.7 576 353.8C640 354 704 365 768 363.8C832 362.7 896 349.3 928 342.7L960 336L960 541L928 541C896 541 832 541 768 541C704 541 640 541 576 541C512 541 448 541 384 541C320 541 256 541 192 541C128 541 64 541 32 541L0 541Z" fill="#605c55"></path><path d="M0 423L32 428.2C64 433.3 128 443.7 192 449.5C256 455.3 320 456.7 384 453.8C448 451 512 444 576 435.3C640 426.7 704 416.3 768 420.3C832 424.3 896 442.7 928 451.8L960 461L960 541L928 541C896 541 832 541 768 541C704 541 640 541 576 541C512 541 448 541 384 541C320 541 256 541 192 541C128 541 64 541 32 541L0 541Z" fill="#3b3936"></path><path d="M0 482L32 482C64 482 128 482 192 475.5C256 469 320 456 384 452.7C448 449.3 512 455.7 576 456.8C640 458 704 454 768 460.8C832 467.7 896 485.3 928 494.2L960 503L960 541L928 541C896 541 832 541 768 541C704 541 640 541 576 541C512 541 448 541 384 541C320 541 256 541 192 541C128 541 64 541 32 541L0 541Z" fill="#191919"></path></svg>